<mxfile host="app.diagrams.net" modified="2020-07-20T12:07:34.908Z" agent="5.0 (Macintosh; Intel Mac OS X 10_15) AppleWebKit/605.1.15 (KHTML, like Gecko) Version/13.0.2 Safari/605.1.15" etag="6d2lrPG7W-YFRtisBTWi" version="13.4.8" type="github">
  <diagram id="-tMu2Br_x9W8dtqS7oAV" name="Page-1">
    <mxGraphModel dx="1261" dy="1040" grid="1" gridSize="10" guides="1" tooltips="1" connect="1" arrows="1" fold="1" page="1" pageScale="1" pageWidth="827" pageHeight="1169" math="0" shadow="0">
      <root>
        <mxCell id="0" />
        <mxCell id="1" parent="0" />
        <mxCell id="DhBHgeUo5JOWTiw7xwSn-1" value="LAND" style="whiteSpace=wrap;html=1;align=center;" parent="1" vertex="1">
          <mxGeometry x="180" y="370" width="150" height="60" as="geometry" />
        </mxCell>
        <mxCell id="DhBHgeUo5JOWTiw7xwSn-2" value="countryterritoryCode" style="ellipse;whiteSpace=wrap;html=1;align=center;fontStyle=4;" parent="1" vertex="1">
          <mxGeometry x="190" y="270" width="120" height="50" as="geometry" />
        </mxCell>
        <mxCell id="DhBHgeUo5JOWTiw7xwSn-3" value="popData2018" style="ellipse;whiteSpace=wrap;html=1;align=center;" parent="1" vertex="1">
          <mxGeometry x="20" y="420" width="100" height="40" as="geometry" />
        </mxCell>
        <mxCell id="DhBHgeUo5JOWTiw7xwSn-4" value="countriesandTerritories" style="ellipse;whiteSpace=wrap;html=1;align=center;" parent="1" vertex="1">
          <mxGeometry x="20" y="330" width="130" height="60" as="geometry" />
        </mxCell>
        <mxCell id="DhBHgeUo5JOWTiw7xwSn-5" value="continentExp" style="ellipse;whiteSpace=wrap;html=1;align=center;" parent="1" vertex="1">
          <mxGeometry x="70" y="280" width="100" height="40" as="geometry" />
        </mxCell>
        <mxCell id="DhBHgeUo5JOWTiw7xwSn-7" value="geold" style="ellipse;whiteSpace=wrap;html=1;align=center;" parent="1" vertex="1">
          <mxGeometry x="80" y="480" width="100" height="40" as="geometry" />
        </mxCell>
        <mxCell id="DhBHgeUo5JOWTiw7xwSn-8" value="COVID-STATISTIK" style="whiteSpace=wrap;html=1;align=center;" parent="1" vertex="1">
          <mxGeometry x="590" y="367.5" width="180" height="65" as="geometry" />
        </mxCell>
        <mxCell id="DhBHgeUo5JOWTiw7xwSn-9" value="hat" style="shape=rhombus;perimeter=rhombusPerimeter;whiteSpace=wrap;html=1;align=center;" parent="1" vertex="1">
          <mxGeometry x="390" y="370" width="120" height="60" as="geometry" />
        </mxCell>
        <mxCell id="DhBHgeUo5JOWTiw7xwSn-11" value="dateRep" style="ellipse;whiteSpace=wrap;html=1;align=center;" parent="1" vertex="1">
          <mxGeometry x="400" y="490" width="100" height="40" as="geometry" />
        </mxCell>
        <mxCell id="DhBHgeUo5JOWTiw7xwSn-12" value="total_tests" style="ellipse;whiteSpace=wrap;html=1;align=center;" parent="1" vertex="1">
          <mxGeometry x="680" y="470" width="100" height="40" as="geometry" />
        </mxCell>
        <mxCell id="DhBHgeUo5JOWTiw7xwSn-13" value="ID" style="ellipse;whiteSpace=wrap;html=1;align=center;fontStyle=4;" parent="1" vertex="1">
          <mxGeometry x="570" y="470" width="100" height="40" as="geometry" />
        </mxCell>
        <mxCell id="DhBHgeUo5JOWTiw7xwSn-14" value="deaths" style="ellipse;whiteSpace=wrap;html=1;align=center;" parent="1" vertex="1">
          <mxGeometry x="680" y="290" width="100" height="40" as="geometry" />
        </mxCell>
        <mxCell id="DhBHgeUo5JOWTiw7xwSn-15" value="cases" style="ellipse;whiteSpace=wrap;html=1;align=center;" parent="1" vertex="1">
          <mxGeometry x="560" y="290" width="100" height="40" as="geometry" />
        </mxCell>
        <mxCell id="DhBHgeUo5JOWTiw7xwSn-16" value="" style="endArrow=none;html=1;exitX=1;exitY=0.5;exitDx=0;exitDy=0;entryX=0;entryY=0.5;entryDx=0;entryDy=0;" parent="1" source="DhBHgeUo5JOWTiw7xwSn-1" target="DhBHgeUo5JOWTiw7xwSn-9" edge="1">
          <mxGeometry width="50" height="50" relative="1" as="geometry">
            <mxPoint x="390" y="550" as="sourcePoint" />
            <mxPoint x="440" y="500" as="targetPoint" />
          </mxGeometry>
        </mxCell>
        <mxCell id="DhBHgeUo5JOWTiw7xwSn-17" value="" style="endArrow=none;html=1;entryX=0;entryY=0.5;entryDx=0;entryDy=0;" parent="1" source="DhBHgeUo5JOWTiw7xwSn-9" target="DhBHgeUo5JOWTiw7xwSn-8" edge="1">
          <mxGeometry width="50" height="50" relative="1" as="geometry">
            <mxPoint x="390" y="550" as="sourcePoint" />
            <mxPoint x="440" y="500" as="targetPoint" />
          </mxGeometry>
        </mxCell>
        <mxCell id="DhBHgeUo5JOWTiw7xwSn-18" value="" style="endArrow=none;html=1;entryX=0.5;entryY=0;entryDx=0;entryDy=0;exitX=0.5;exitY=1;exitDx=0;exitDy=0;" parent="1" source="DhBHgeUo5JOWTiw7xwSn-9" target="DhBHgeUo5JOWTiw7xwSn-11" edge="1">
          <mxGeometry width="50" height="50" relative="1" as="geometry">
            <mxPoint x="390" y="550" as="sourcePoint" />
            <mxPoint x="440" y="500" as="targetPoint" />
          </mxGeometry>
        </mxCell>
        <mxCell id="DhBHgeUo5JOWTiw7xwSn-19" value="" style="endArrow=none;html=1;entryX=0.5;entryY=1;entryDx=0;entryDy=0;exitX=0.25;exitY=0;exitDx=0;exitDy=0;" parent="1" source="DhBHgeUo5JOWTiw7xwSn-8" target="DhBHgeUo5JOWTiw7xwSn-15" edge="1">
          <mxGeometry width="50" height="50" relative="1" as="geometry">
            <mxPoint x="390" y="550" as="sourcePoint" />
            <mxPoint x="440" y="500" as="targetPoint" />
          </mxGeometry>
        </mxCell>
        <mxCell id="DhBHgeUo5JOWTiw7xwSn-20" value="" style="endArrow=none;html=1;exitX=0.5;exitY=0;exitDx=0;exitDy=0;entryX=0.25;entryY=1;entryDx=0;entryDy=0;" parent="1" source="DhBHgeUo5JOWTiw7xwSn-13" target="DhBHgeUo5JOWTiw7xwSn-8" edge="1">
          <mxGeometry width="50" height="50" relative="1" as="geometry">
            <mxPoint x="390" y="550" as="sourcePoint" />
            <mxPoint x="440" y="500" as="targetPoint" />
          </mxGeometry>
        </mxCell>
        <mxCell id="DhBHgeUo5JOWTiw7xwSn-21" value="" style="endArrow=none;html=1;entryX=0.5;entryY=0;entryDx=0;entryDy=0;exitX=0.75;exitY=1;exitDx=0;exitDy=0;" parent="1" source="DhBHgeUo5JOWTiw7xwSn-8" target="DhBHgeUo5JOWTiw7xwSn-12" edge="1">
          <mxGeometry width="50" height="50" relative="1" as="geometry">
            <mxPoint x="390" y="550" as="sourcePoint" />
            <mxPoint x="440" y="500" as="targetPoint" />
          </mxGeometry>
        </mxCell>
        <mxCell id="DhBHgeUo5JOWTiw7xwSn-22" value="" style="endArrow=none;html=1;entryX=0.75;entryY=0;entryDx=0;entryDy=0;exitX=0.5;exitY=1;exitDx=0;exitDy=0;" parent="1" source="DhBHgeUo5JOWTiw7xwSn-14" target="DhBHgeUo5JOWTiw7xwSn-8" edge="1">
          <mxGeometry width="50" height="50" relative="1" as="geometry">
            <mxPoint x="390" y="550" as="sourcePoint" />
            <mxPoint x="440" y="500" as="targetPoint" />
          </mxGeometry>
        </mxCell>
        <mxCell id="DhBHgeUo5JOWTiw7xwSn-23" value="" style="endArrow=none;html=1;exitX=0.69;exitY=-0.025;exitDx=0;exitDy=0;exitPerimeter=0;entryX=0.25;entryY=1;entryDx=0;entryDy=0;" parent="1" source="DhBHgeUo5JOWTiw7xwSn-7" target="DhBHgeUo5JOWTiw7xwSn-1" edge="1">
          <mxGeometry width="50" height="50" relative="1" as="geometry">
            <mxPoint x="390" y="550" as="sourcePoint" />
            <mxPoint x="440" y="500" as="targetPoint" />
          </mxGeometry>
        </mxCell>
        <mxCell id="DhBHgeUo5JOWTiw7xwSn-24" value="" style="endArrow=none;html=1;exitX=0.5;exitY=0;exitDx=0;exitDy=0;entryX=0.5;entryY=1;entryDx=0;entryDy=0;" parent="1" source="DhBHgeUo5JOWTiw7xwSn-1" target="DhBHgeUo5JOWTiw7xwSn-2" edge="1">
          <mxGeometry width="50" height="50" relative="1" as="geometry">
            <mxPoint x="390" y="550" as="sourcePoint" />
            <mxPoint x="440" y="500" as="targetPoint" />
          </mxGeometry>
        </mxCell>
        <mxCell id="DhBHgeUo5JOWTiw7xwSn-25" value="" style="endArrow=none;html=1;exitX=0.25;exitY=0;exitDx=0;exitDy=0;" parent="1" source="DhBHgeUo5JOWTiw7xwSn-1" target="DhBHgeUo5JOWTiw7xwSn-5" edge="1">
          <mxGeometry width="50" height="50" relative="1" as="geometry">
            <mxPoint x="390" y="550" as="sourcePoint" />
            <mxPoint x="440" y="500" as="targetPoint" />
          </mxGeometry>
        </mxCell>
        <mxCell id="DhBHgeUo5JOWTiw7xwSn-26" value="" style="endArrow=none;html=1;exitX=0;exitY=0;exitDx=0;exitDy=0;entryX=1;entryY=0.5;entryDx=0;entryDy=0;" parent="1" source="DhBHgeUo5JOWTiw7xwSn-1" target="DhBHgeUo5JOWTiw7xwSn-4" edge="1">
          <mxGeometry width="50" height="50" relative="1" as="geometry">
            <mxPoint x="390" y="550" as="sourcePoint" />
            <mxPoint x="440" y="500" as="targetPoint" />
          </mxGeometry>
        </mxCell>
        <mxCell id="DhBHgeUo5JOWTiw7xwSn-27" value="" style="endArrow=none;html=1;exitX=1;exitY=0.5;exitDx=0;exitDy=0;entryX=0;entryY=0.5;entryDx=0;entryDy=0;" parent="1" source="DhBHgeUo5JOWTiw7xwSn-3" target="DhBHgeUo5JOWTiw7xwSn-1" edge="1">
          <mxGeometry width="50" height="50" relative="1" as="geometry">
            <mxPoint x="390" y="550" as="sourcePoint" />
            <mxPoint x="440" y="500" as="targetPoint" />
          </mxGeometry>
        </mxCell>
        <mxCell id="DhBHgeUo5JOWTiw7xwSn-28" value="Longitude" style="ellipse;whiteSpace=wrap;html=1;align=center;" parent="1" vertex="1">
          <mxGeometry x="314" y="280" width="100" height="40" as="geometry" />
        </mxCell>
        <mxCell id="DhBHgeUo5JOWTiw7xwSn-29" value="Latitude" style="ellipse;whiteSpace=wrap;html=1;align=center;" parent="1" vertex="1">
          <mxGeometry x="200" y="480" width="100" height="40" as="geometry" />
        </mxCell>
        <mxCell id="DhBHgeUo5JOWTiw7xwSn-31" value="" style="endArrow=none;html=1;exitX=0.5;exitY=1;exitDx=0;exitDy=0;" parent="1" source="DhBHgeUo5JOWTiw7xwSn-1" target="DhBHgeUo5JOWTiw7xwSn-29" edge="1">
          <mxGeometry width="50" height="50" relative="1" as="geometry">
            <mxPoint x="390" y="550" as="sourcePoint" />
            <mxPoint x="440" y="500" as="targetPoint" />
          </mxGeometry>
        </mxCell>
        <mxCell id="DhBHgeUo5JOWTiw7xwSn-32" value="" style="endArrow=none;html=1;exitX=0.75;exitY=0;exitDx=0;exitDy=0;" parent="1" source="DhBHgeUo5JOWTiw7xwSn-1" target="DhBHgeUo5JOWTiw7xwSn-28" edge="1">
          <mxGeometry width="50" height="50" relative="1" as="geometry">
            <mxPoint x="390" y="550" as="sourcePoint" />
            <mxPoint x="440" y="500" as="targetPoint" />
          </mxGeometry>
        </mxCell>
      </root>
    </mxGraphModel>
  </diagram>
</mxfile>
